<svg width="400" height="400" viewBox="0 0 400 400" fill="none" xmlns="http://www.w3.org/2000/svg">
  <defs>
    <linearGradient id="bgGrad" x1="0" y1="0" x2="400" y2="400" gradientUnits="userSpaceOnUse">
      <stop stop-color="#F0FDF4"/>
      <stop offset="1" stop-color="#DCFCE7"/>
    </linearGradient>
    <linearGradient id="geminiGrad" x1="0" y1="0" x2="1" y2="1">
      <stop stop-color="#4285F4"/>
      <stop offset="0.5" stop-color="#9B72CF"/>
      <stop offset="1" stop-color="#D96570"/>
    </linearGradient>
  </defs>
  <rect width="400" height="400" rx="16" fill="url(#bgGrad)"/>
  <rect x="1" y="1" width="398" height="398" rx="15" stroke="#E8E8EE" stroke-width="1.5"/>
  
  <g transform="translate(24, 24)">
    <rect width="124" height="22" rx="6" fill="#1A1D26"/>
    <text x="62" y="15" font-family="system-ui, -apple-system, sans-serif" font-size="10" font-weight="700" fill="#FFFFFF" text-anchor="middle">BEST PRODUCT</text>
  </g>
  
      <circle cx="200" cy="180" r="54" fill="#10A37F" fill-opacity="0.15"/>
      <circle cx="200" cy="180" r="42" fill="#10A37F"/>
      <path d="M200 156c-13.2 0-24 10.8-24 24 0 4.2 1.1 8.2 3.1 11.6l-8.7 5c-7.3-10.9-4.5-25.7 6.4-33 10.9-7.3 25.7-4.5 33 6.4h-9.8zm18 12.4c3.7 3.5 6 8.5 6 14 0 10.8-7.2 19.9-17.1 22.8v10c15.4-3.2 27.1-16.8 27.1-33.2 0-8.2-2.9-15.8-7.8-21.7l-8.2 8.1zm-36 23.6c-3.7-3.5-6-8.5-6-14 0-10.8 7.2-19.9 17.1-22.8v-10c-15.4 3.2-27.1 16.8-27.1 33.2 0 8.2 2.9 15.8 7.8 21.7l8.2-8.1z" fill="#FFFFFF"/>
    
  <text x="200" y="295" font-family="system-ui, -apple-system, sans-serif" font-size="19" font-weight="800" fill="#1A1D26" text-anchor="middle">ChatGPT Plus</text>
  <text x="200" y="322" font-family="system-ui, -apple-system, sans-serif" font-size="13" font-weight="600" fill="#7A8190" text-anchor="middle">GPT-4o & Canvas Access</text>
  <g transform="translate(160, 345)">
    <rect width="80" height="20" rx="10" fill="#FFF2E8"/>
    <text x="40" y="14" font-family="system-ui, -apple-system, sans-serif" font-size="10" font-weight="700" fill="#FC5C03" text-anchor="middle">OFFICIAL</text>
  </g>
</svg>