<svg width="400" height="400" viewBox="0 0 400 400" fill="none" xmlns="http://www.w3.org/2000/svg">
  <defs>
    <linearGradient id="bgGrad" x1="0" y1="0" x2="400" y2="400" gradientUnits="userSpaceOnUse">
      <stop stop-color="#F0F9FF"/>
      <stop offset="1" stop-color="#E0F2FE"/>
    </linearGradient>
    <linearGradient id="geminiGrad" x1="0" y1="0" x2="1" y2="1">
      <stop stop-color="#4285F4"/>
      <stop offset="0.5" stop-color="#9B72CF"/>
      <stop offset="1" stop-color="#D96570"/>
    </linearGradient>
  </defs>
  <rect width="400" height="400" rx="16" fill="url(#bgGrad)"/>
  <rect x="1" y="1" width="398" height="398" rx="15" stroke="#E8E8EE" stroke-width="1.5"/>
  
  <g transform="translate(24, 24)">
    <rect width="97" height="22" rx="6" fill="#1A1D26"/>
    <text x="48.5" y="15" font-family="system-ui, -apple-system, sans-serif" font-size="10" font-weight="700" fill="#FFFFFF" text-anchor="middle">GIFT LINK</text>
  </g>
  
      <circle cx="200" cy="180" r="54" fill="#2AABEE"/>
      <path d="M170 180l15 6 6 19 8-10 15 11 16-36-60 10zm21 5l19-14-15 17-2 7-2-10z" fill="#FFFFFF"/>
    
  <text x="200" y="295" font-family="system-ui, -apple-system, sans-serif" font-size="19" font-weight="800" fill="#1A1D26" text-anchor="middle">Telegram Premium</text>
  <text x="200" y="322" font-family="system-ui, -apple-system, sans-serif" font-size="13" font-weight="600" fill="#7A8190" text-anchor="middle">4GB Uploads & Star Badge</text>
  <g transform="translate(160, 345)">
    <rect width="80" height="20" rx="10" fill="#FFF2E8"/>
    <text x="40" y="14" font-family="system-ui, -apple-system, sans-serif" font-size="10" font-weight="700" fill="#FC5C03" text-anchor="middle">OFFICIAL</text>
  </g>
</svg>