<svg viewBox="0 0 128 128" fill="none" xmlns="http://www.w3.org/2000/svg">
  <defs>
    <clipPath id="m4Clip"><rect width="128" height="128" rx="64" fill="#fff"/></clipPath>
    <linearGradient id="m4Bg" x1="0" y1="0" x2="128" y2="128" gradientUnits="userSpaceOnUse">
      <stop stop-color="#DDD6FE"/>
      <stop offset="1" stop-color="#EDE9FE"/>
    </linearGradient>
  </defs>
  <g clip-path="url(#m4Clip)">
    <rect width="128" height="128" fill="url(#m4Bg)"/>
    <!-- Violet Sweatshirt -->
    <path d="M22 132 C22 96 40 84 64 84 C88 84 106 96 106 132 Z" fill="#6D28D9"/>
    <!-- Neck -->
    <rect x="56" y="68" width="16" height="20" rx="4" fill="#F8D7B8"/>
    <!-- Head -->
    <ellipse cx="64" cy="56" rx="25" ry="27" fill="#FBD8B5"/>
    <!-- Headphone Band Over Head -->
    <path d="M34 52 C34 26 94 26 94 52" stroke="#4C1D95" stroke-width="6" stroke-linecap="round"/>
    <!-- Spiky Hair -->
    <path d="M38 48 C38 30 52 24 64 24 C76 24 88 30 88 48 C82 42 74 38 64 38 C54 38 44 42 38 48 Z" fill="#451A03"/>
    <path d="M48 30 L54 22 L60 30 L66 20 L72 30" fill="#451A03"/>
    <!-- Headphone Earcups -->
    <rect x="29" y="46" width="10" height="22" rx="5" fill="#7C3AED" stroke="#4C1D95" stroke-width="2"/>
    <rect x="89" y="46" width="10" height="22" rx="5" fill="#7C3AED" stroke="#4C1D95" stroke-width="2"/>
    <!-- Cheeks Blush -->
    <circle cx="48" cy="64" r="4.5" fill="#F43F5E" opacity="0.3"/>
    <circle cx="80" cy="64" r="4.5" fill="#F43F5E" opacity="0.3"/>
    <!-- Energetic Winking Eyes -->
    <ellipse cx="52" cy="55" rx="3.2" ry="3.5" fill="#1E1B4B"/>
    <circle cx="53" cy="54" r="1.1" fill="#FFFFFF"/>
    <!-- Cute Wink on Right Eye -->
    <path d="M72 56 C74 53 78 53 80 56" stroke="#1E1B4B" stroke-width="2.5" stroke-linecap="round"/>
    <!-- Eyebrows -->
    <path d="M46 47 C50 44 56 45 58 48" stroke="#451A03" stroke-width="2.2" stroke-linecap="round"/>
    <path d="M70 47 C72 45 78 44 82 46" stroke="#451A03" stroke-width="2.2" stroke-linecap="round"/>
    <!-- Playful Open Smile -->
    <path d="M56 67 C56 74 72 74 72 67 Z" fill="#BE123C"/>
    <path d="M58 67 C60 69 68 69 70 67" stroke="#FFFFFF" stroke-width="2"/>
  </g>
</svg>